 <svg  version="1.0" xmlns="http://www.w3.org/2000/svg"  width="1440.000000pt" height="1440.000000pt" viewBox="0 0 1440.000000 1440.000000"  preserveAspectRatio="xMidYMid meet">  <g transform="translate(0.000000,1440.000000) scale(0.100000,-0.100000)" fill="#80417c" stroke="none"> <path d="M6490 14024 c-243 -84 -275 -96 -295 -104 -11 -5 -42 -18 -70 -30 -27 -12 -59 -25 -70 -30 -11 -5 -42 -18 -70 -30 -107 -45 -123 -53 -220 -102 -137 -70 -282 -154 -327 -189 -40 -32 -75 -38 -84 -14 -3 8 -1 58 5 111 9 89 6 117 -14 142 -9 10 -79 -40 -140 -99 -98 -95 -293 -256 -335 -276 -19 -9 -53 -16 -75 -15 -189 8 -263 6 -318 -12 -119 -37 -202 -92 -314 -204 -105 -106 -106 -106 -132 -168 -12 -27 -25 -56 -30 -64 -5 -9 -12 -30 -15 -46 -5 -20 -17 -36 -34 -44 -41 -20 -183 -24 -270 -9 -116 21 -266 17 -322 -8 -42 -19 -219 -154 -287 -219 -16 -16 -101 -96 -189 -178 -268 -252 -741 -732 -762 -772 -11 -22 -36 -87 -56 -147 -53 -157 -78 -209 -142 -290 -88 -113 -246 -278 -373 -390 -226 -199 -477 -460 -548 -569 -15 -23 -30 -45 -33 -48 -9 -7 -92 -150 -112 -190 -69 -141 -138 -345 -184 -540 -13 -58 -29 -123 -34 -145 -5 -22 -15 -67 -21 -100 -6 -33 -18 -96 -26 -140 -8 -44 -21 -120 -28 -170 -45 -293 -66 -423 -90 -560 -40 -232 -40 -208 0 -278 55 -94 54 -91 137 -257 43 -85 78 -158 78 -161 0 -4 13 -36 29 -71 47 -103 112 -289 156 -443 9 -33 23 -82 31 -108 15 -48 22 -78 49 -207 8 -36 19 -85 24 -110 6 -25 10 -71 11 -102 0 -86 -43 -131 -130 -132 l-35 -1 -3 -80 c-6 -150 21 -362 58 -450 28 -66 42 -97 69 -158 17 -38 31 -70 31 -72 0 -2 16 -38 36 -82 20 -43 46 -101 59 -128 62 -136 198 -448 230 -525 10 -25 31 -74 47 -110 17 -36 33 -74 38 -85 5 -11 22 -49 38 -85 17 -36 53 -121 81 -190 29 -69 56 -134 61 -145 24 -55 66 -171 116 -323 86 -261 81 -249 120 -256 18 -4 55 -24 82 -46 78 -61 129 -161 147 -285 9 -64 53 -233 77 -300 16 -42 47 -117 57 -135 4 -8 25 -46 45 -84 20 -38 42 -74 49 -82 7 -7 30 -34 52 -60 85 -102 156 -158 275 -217 125 -61 168 -69 440 -77 220 -6 252 -9 310 -30 73 -26 146 -71 229 -142 137 -116 378 -198 588 -198 78 0 126 -5 143 -13 37 -20 300 -157 415 -217 55 -28 118 -62 140 -74 22 -12 105 -59 185 -103 159 -88 242 -137 279 -165 32 -25 61 -23 105 7 44 30 48 30 70 6 14 -16 17 -34 15 -90 -2 -38 -1 -72 1 -74 3 -3 39 -1 80 4 581 66 935 88 1145 69 338 -31 471 -52 658 -105 32 -8 63 -13 69 -8 68 41 347 33 435 -12 15 -8 33 -15 39 -15 6 0 55 -23 110 -51 54 -28 126 -65 158 -82 46 -23 74 -30 120 -31 l61 -1 -3 62 -3 61 53 25 c105 49 226 86 356 107 29 5 75 14 102 21 77 20 112 -1 204 -118 54 -69 111 -118 126 -108 6 3 10 41 10 84 0 82 18 151 48 184 38 42 73 52 207 57 l129 5 1 100 c0 82 4 105 20 131 32 50 382 418 480 505 68 60 143 109 168 109 15 0 32 -12 47 -32 33 -45 132 -148 142 -148 13 0 -50 160 -76 194 -14 17 -46 54 -71 81 -79 87 -75 120 22 153 38 13 77 27 88 32 96 40 191 50 235 25 36 -21 52 -18 50 8 -4 46 1 58 37 92 50 47 86 57 233 64 108 5 129 9 157 29 44 31 79 112 88 199 l7 72 88 108 c49 59 128 156 177 216 48 59 95 115 104 125 8 9 31 39 50 67 19 27 38 54 42 60 4 5 31 46 59 90 28 44 70 109 93 145 62 94 125 199 125 207 0 3 6 14 14 22 18 22 77 131 157 291 71 141 89 181 159 345 23 55 53 124 66 153 13 29 24 55 24 58 0 5 21 55 57 132 34 76 -4 50 -169 -118 -132 -134 -168 -175 -168 -189 0 -5 -6 -16 -14 -23 -7 -8 -21 -30 -31 -48 -29 -56 -64 -97 -101 -119 -37 -22 -98 -28 -109 -11 -10 17 -25 11 -35 -12 -5 -13 -18 -57 -30 -98 -21 -73 -52 -116 -72 -104 -6 4 -9 38 -6 85 4 62 2 79 -9 79 -7 0 -13 -4 -13 -10 0 -5 -33 -34 -72 -64 -40 -30 -111 -84 -158 -120 -47 -37 -130 -102 -184 -144 -54 -42 -117 -92 -140 -109 -23 -18 -57 -44 -77 -57 -48 -33 -411 -306 -427 -323 -7 -7 -36 -29 -65 -48 -29 -20 -87 -60 -130 -90 -42 -30 -82 -55 -87 -55 -6 0 -10 -3 -10 -7 0 -5 -17 -19 -38 -33 -20 -14 -79 -55 -129 -93 -130 -95 -810 -548 -858 -572 -25 -12 -62 -19 -100 -20 -54 0 -65 4 -104 34 -23 19 -47 45 -52 57 -4 13 -14 24 -21 24 -7 0 -40 -25 -72 -55 -70 -64 -118 -89 -152 -81 -32 8 -64 62 -64 107 l0 36 -82 7 -83 6 -27 -30 c-16 -17 -28 -38 -28 -48 0 -9 -10 -30 -23 -45 -26 -34 -50 -29 -73 14 -8 16 -19 29 -23 29 -5 0 -13 -29 -16 -66 -10 -90 -44 -120 -72 -63 -18 36 -34 30 -73 -28 -20 -32 -41 -53 -52 -53 -12 0 -39 32 -78 91 -33 50 -61 87 -61 83 -1 -5 -2 -36 -3 -69 l-1 -60 -36 -3 c-37 -3 -37 -4 -44 -58 -5 -42 -12 -58 -32 -72 -14 -9 -61 -51 -105 -92 -44 -41 -91 -80 -106 -86 -15 -7 -88 -17 -162 -23 -164 -14 -409 -53 -545 -86 -121 -30 -139 -30 -235 -5 -82 22 -127 32 -356 79 -347 70 -566 102 -924 136 -285 26 -365 36 -390 45 -14 5 -49 12 -77 15 -29 4 -55 11 -59 16 -3 5 -16 9 -30 9 -67 0 -427 142 -544 215 -19 12 -62 37 -95 55 -33 18 -65 37 -72 44 -21 19 -4 52 37 70 44 19 100 83 100 115 0 27 -4 27 -48 -8 -39 -30 -89 -46 -209 -63 l-72 -11 -52 49 c-88 84 -104 98 -150 138 -24 21 -114 107 -199 190 -85 83 -196 187 -245 231 -50 44 -142 130 -205 192 -63 61 -144 138 -179 170 -227 205 -615 585 -734 718 -44 50 -133 146 -198 215 -170 180 -206 232 -298 425 -56 118 -59 124 -91 200 -12 28 -25 59 -30 70 -5 11 -18 43 -30 70 -12 28 -25 59 -30 70 -41 99 -80 194 -80 199 0 10 -61 136 -66 136 -3 0 -17 -9 -31 -20 -57 -45 -106 -18 -161 88 -36 70 -40 117 -16 164 28 55 53 69 107 64 26 -3 45 -1 42 3 -3 5 -12 65 -21 133 -23 184 -43 330 -49 358 -3 14 -10 61 -15 105 -5 44 -16 127 -24 185 -13 105 -8 208 13 248 6 9 25 51 44 92 94 203 91 188 121 495 8 77 24 226 35 330 41 370 60 541 66 590 3 28 12 109 20 180 18 168 33 271 44 315 6 19 17 69 26 110 22 102 90 327 124 415 5 11 26 65 47 120 43 113 169 368 229 463 22 35 68 101 103 148 34 47 62 87 62 90 0 3 5 10 10 17 6 7 38 50 72 97 109 151 453 518 693 741 50 46 148 138 219 204 71 66 134 125 140 130 6 6 54 46 106 89 52 44 100 85 105 91 23 27 349 235 368 235 4 0 57 30 120 68 62 37 125 74 139 82 15 8 120 72 235 141 238 145 607 336 798 414 22 9 48 20 57 25 10 6 23 10 29 10 6 0 25 6 42 14 18 8 86 32 152 54 338 113 627 152 1111 152 326 0 352 4 420 55 58 45 69 82 69 240 l0 140 -48 -3 c-61 -5 -128 27 -212 99 -79 67 -131 101 -180 116 -54 17 -53 17 -195 -33z m-5014 -8146 c38 -34 70 -94 149 -284 25 -61 57 -126 70 -144 51 -69 15 -81 -71 -24 -82 55 -104 89 -121 192 -15 86 -47 171 -84 223 -28 40 -24 64 13 68 4 1 24 -13 44 -31z m-143 -63 c11 -33 31 -91 44 -128 28 -75 23 -98 -16 -78 -12 7 -21 16 -21 21 0 5 -6 15 -12 22 -7 7 -31 36 -53 63 -21 28 -45 54 -52 58 -20 13 -15 58 9 84 16 17 31 23 52 21 27 -3 32 -9 49 -63z"/> <path d="M8404 13641 c-48 -22 -80 -54 -99 -99 -8 -18 -21 -35 -29 -38 -9 -3 -44 3 -78 15 -49 17 -86 21 -179 21 -65 0 -128 -4 -141 -10 -13 -5 -42 -14 -66 -20 -56 -14 -106 -59 -137 -125 -34 -72 -32 -122 5 -199 37 -74 73 -115 165 -185 169 -128 432 -214 693 -228 l124 -6 125 -76 c69 -42 138 -84 152 -93 14 -10 38 -23 54 -29 15 -6 27 -15 27 -19 0 -5 10 -12 21 -15 49 -16 541 -337 859 -560 116 -81 279 -201 319 -234 25 -19 59 -45 75 -56 17 -12 81 -56 143 -97 100 -68 374 -268 413 -301 8 -6 22 -16 31 -22 119 -72 125 -75 175 -75 57 0 86 10 219 75 58 29 98 43 111 39 21 -5 22 -11 20 -117 -1 -173 13 -242 106 -497 110 -303 131 -332 356 -485 97 -65 172 -192 193 -326 16 -104 5 -270 -23 -356 l-23 -68 76 -153 c42 -84 84 -161 93 -171 9 -10 16 -21 16 -25 0 -6 31 -50 92 -129 28 -37 203 -212 258 -258 43 -36 43 -36 47 -115 8 -142 53 -182 123 -109 37 38 79 47 81 18 2 -34 -2 -78 -11 -128 -5 -27 -14 -95 -20 -150 -26 -251 -31 -342 -23 -400 l10 -60 7 70 c24 244 58 472 91 610 8 33 19 83 25 110 6 28 15 59 20 70 5 11 19 54 31 95 12 41 28 88 36 103 8 16 12 31 9 35 -7 6 -56 -37 -56 -50 0 -4 -13 -30 -30 -56 -35 -57 -84 -88 -123 -78 l-27 6 0 128 c-1 160 -16 433 -35 627 -22 232 -43 420 -54 498 -26 186 -33 248 -40 337 -7 93 -31 169 -65 203 -7 7 -36 50 -64 97 -29 47 -77 123 -107 170 -109 171 -245 398 -245 409 0 6 -4 11 -10 11 -5 0 -10 4 -10 10 0 5 -33 58 -73 117 -40 60 -120 186 -178 281 -57 95 -111 184 -119 196 -8 13 -46 73 -83 132 -37 60 -90 143 -116 184 -27 41 -89 140 -137 220 -48 80 -115 178 -148 218 -47 58 -204 207 -391 374 -40 35 -150 120 -170 130 -11 6 -22 14 -25 17 -5 7 -147 96 -185 117 -11 6 -45 26 -75 44 -53 32 -364 190 -374 190 -2 0 -33 13 -68 29 -35 16 -85 36 -113 46 -27 9 -59 21 -70 25 -36 14 -109 38 -150 50 -345 95 -470 111 -895 110 -264 -1 -300 -3 -336 -19z"/> <path d="M5060 9919 c-80 -4 -167 -12 -195 -18 -27 -5 -72 -15 -100 -20 -135 -26 -317 -81 -339 -102 -6 -5 -17 -9 -25 -9 -9 0 -63 -23 -119 -50 -57 -28 -105 -50 -108 -50 -2 0 -50 -28 -106 -61 -137 -82 -272 -177 -329 -230 -25 -24 -68 -65 -95 -90 -103 -95 -269 -295 -315 -379 -11 -19 -24 -42 -29 -50 -48 -75 -146 -261 -171 -325 -53 -137 -117 -390 -144 -572 -24 -164 -22 -487 4 -658 29 -185 79 -391 119 -488 7 -16 12 -33 12 -38 0 -5 4 -17 9 -27 5 -9 33 -66 62 -127 272 -562 743 -966 1369 -1172 91 -30 219 -57 395 -84 87 -13 484 -13 585 0 189 24 246 33 254 42 6 5 18 9 27 9 51 0 343 107 489 180 294 145 358 189 401 272 18 36 19 71 19 840 l0 803 -28 55 c-22 44 -39 62 -82 88 l-54 32 -653 0 c-624 0 -655 -1 -691 -19 -82 -42 -122 -112 -122 -211 0 -93 47 -171 130 -216 33 -18 68 -19 515 -24 l480 -5 3 -568 c1 -339 -2 -575 -7 -586 -29 -54 -334 -155 -646 -213 -96 -18 -548 -18 -630 0 -178 39 -255 58 -300 75 -27 10 -61 22 -75 26 -40 13 -246 116 -273 137 -14 11 -35 26 -47 34 -51 33 -139 107 -210 176 -41 40 -87 83 -101 96 -81 71 -206 258 -287 428 -41 84 -102 247 -102 269 0 10 -3 21 -7 25 -10 10 -30 96 -51 221 -21 124 -23 469 -4 595 18 118 61 289 88 347 8 17 14 38 14 46 0 9 5 19 10 22 6 3 10 14 10 24 0 41 156 315 239 422 70 89 304 304 400 369 13 8 37 25 54 37 45 34 241 126 327 156 67 23 121 37 300 78 75 17 479 24 578 10 106 -15 208 -36 267 -54 28 -8 76 -22 109 -31 69 -19 169 -58 246 -95 139 -68 223 -75 300 -26 103 65 139 229 73 327 -29 44 -36 48 -173 120 -201 107 -371 163 -655 219 -50 9 -379 30 -439 28 -17 -1 -96 -5 -176 -10z"/> <path d="M7245 9871 c-150 -76 -189 -225 -99 -378 15 -26 31 -52 36 -58 53 -67 185 -239 228 -299 117 -162 240 -331 249 -342 28 -34 358 -479 421 -569 41 -58 84 -116 94 -128 19 -22 230 -307 284 -382 15 -22 43 -61 61 -86 l32 -46 -1 -936 c0 -641 3 -959 11 -1009 22 -145 102 -220 234 -220 95 -1 156 34 206 117 l24 40 5 987 c5 980 5 987 26 1015 11 15 39 55 62 88 37 55 220 306 239 330 5 6 25 33 46 60 20 28 40 55 45 60 4 6 19 28 32 50 13 22 29 45 35 52 5 7 30 42 55 78 25 36 106 148 180 250 74 101 155 213 180 250 25 36 52 75 60 85 8 11 49 67 90 125 63 89 215 296 242 330 35 44 103 144 121 178 18 34 22 59 22 132 0 78 -3 95 -25 130 -33 54 -55 74 -103 96 -57 26 -129 24 -185 -3 -41 -21 -112 -102 -174 -198 -8 -14 -24 -35 -34 -47 -11 -11 -26 -31 -34 -43 -8 -12 -27 -40 -43 -61 -15 -22 -62 -90 -104 -152 -42 -62 -90 -131 -107 -155 -77 -106 -160 -217 -166 -222 -3 -3 -37 -52 -75 -110 -38 -58 -72 -107 -75 -110 -3 -3 -26 -36 -52 -75 -26 -38 -54 -79 -63 -90 -8 -11 -45 -60 -80 -110 -35 -49 -68 -95 -73 -101 -8 -9 -62 -86 -126 -179 -12 -16 -23 -32 -26 -35 -3 -3 -23 -31 -44 -62 -56 -83 -76 -85 -131 -8 -16 22 -51 69 -76 103 -25 34 -74 105 -110 157 -35 52 -66 97 -70 100 -13 11 -224 296 -273 368 -61 90 -58 87 -251 348 -157 212 -263 359 -329 453 -36 52 -104 140 -144 186 -35 40 -75 58 -141 62 -52 3 -75 -1 -106 -16z"/> </g> </svg> 